<svg xmlns="http://www.w3.org/2000/svg" viewBox="0 0 500 500"><g id="freepik--background-complete--inject-7"><rect y="382.4" width="500" height="0.25" style="fill:#e6e6e6"></rect><rect x="51.65" y="393.56" width="26.57" height="0.25" style="fill:#e6e6e6"></rect><rect x="64.93" y="388.56" width="22.9" height="0.25" style="fill:#e6e6e6"></rect><rect x="263.96" y="389.3" width="61.45" height="0.25" style="fill:#e6e6e6"></rect><rect x="331.17" y="389.3" width="14.74" height="0.25" style="fill:#e6e6e6"></rect><rect x="381.06" y="391.01" width="48.66" height="0.25" style="fill:#e6e6e6"></rect><rect x="106.54" y="395" width="86.63" height="0.25" style="fill:#e6e6e6"></rect><rect x="438.5" y="391.01" width="7.09" height="0.25" style="fill:#e6e6e6"></rect><path d="M237,337.8H43.91a5.71,5.71,0,0,1-5.7-5.71V60.66A5.71,5.71,0,0,1,43.91,55H237a5.71,5.71,0,0,1,5.71,5.71V332.09A5.71,5.71,0,0,1,237,337.8ZM43.91,55.2a5.46,5.46,0,0,0-5.45,5.46V332.09a5.46,5.46,0,0,0,5.45,5.46H237a5.47,5.47,0,0,0,5.46-5.46V60.66A5.47,5.47,0,0,0,237,55.2Z" style="fill:#e6e6e6"></path><path d="M453.31,337.8H260.21a5.72,5.72,0,0,1-5.71-5.71V60.66A5.72,5.72,0,0,1,260.21,55h193.1A5.71,5.71,0,0,1,459,60.66V332.09A5.71,5.71,0,0,1,453.31,337.8ZM260.21,55.2a5.47,5.47,0,0,0-5.46,5.46V332.09a5.47,5.47,0,0,0,5.46,5.46h193.1a5.47,5.47,0,0,0,5.46-5.46V60.66a5.47,5.47,0,0,0-5.46-5.46Z" style="fill:#e6e6e6"></path><circle cx="131.56" cy="205.38" r="22.44" transform="translate(-98.12 287.45) rotate(-77.02)" style="fill:#f0f0f0"></circle><path d="M284.58,200.74c-2.79-6-.57-10.35,6.27-10.35,4.28,0,9.6,1.7,14.78,4.45.59-1.57,2.23-2.51,4.88-2.51,4.67,0,11.1,2.91,16.14,7a9.3,9.3,0,0,1,5.26-1.57c4.47-.18,9.87,1.49,14.57,4.21a2.85,2.85,0,0,1,2.07-.78,10.68,10.68,0,0,1,7.79,3.77c.11.13.2.27.3.4H281.11C278.72,203.23,281.36,200.85,284.58,200.74Z" style="fill:#f5f5f5"></path><polygon points="137.44 247.17 199.32 233 199.32 382.4 137.44 382.4 137.44 247.17" style="fill:#fafafa"></polygon><rect x="199.32" y="233" width="32.11" height="149.4" style="fill:#ebebeb"></rect><rect x="220.94" y="197.27" width="52.67" height="185.13" transform="translate(494.55 579.67) rotate(180)" style="fill:#fafafa"></rect><rect x="273.61" y="197.27" width="27.33" height="185.13" style="fill:#ebebeb"></rect><rect x="228.03" y="183.51" width="45.58" height="13.76" transform="translate(501.64 380.78) rotate(180)" style="fill:#fafafa"></rect><rect x="228.03" y="194.18" width="45.58" height="3.09" transform="translate(501.64 391.45) rotate(180)" style="fill:#ebebeb"></rect><rect x="273.61" y="183.51" width="20.25" height="13.76" style="fill:#ebebeb"></rect><rect x="235.12" y="169.76" width="38.49" height="13.76" transform="translate(508.72 353.27) rotate(180)" style="fill:#fafafa"></rect><rect x="235.12" y="180.43" width="38.49" height="3.09" transform="translate(508.72 363.94) rotate(180)" style="fill:#ebebeb"></rect><rect x="273.61" y="169.76" width="13.16" height="13.76" style="fill:#ebebeb"></rect><rect x="259.66" y="150.54" width="2.56" height="19.22" style="fill:#ebebeb"></rect><rect x="292.22" y="221.33" width="38.46" height="161.07" transform="translate(622.89 603.73) rotate(180)" style="fill:#fafafa"></rect><rect x="330.68" y="221.33" width="19.96" height="161.07" style="fill:#ebebeb"></rect><polygon points="340.66 254 369.82 279 369.82 382.4 340.66 382.4 340.66 254" style="fill:#fafafa"></polygon><rect x="369.82" y="279" width="15.14" height="103.4" style="fill:#ebebeb"></rect><polygon points="384.96 279 369.82 279 340.66 254 355.79 254 384.96 279" style="fill:#ebebeb"></polygon><path d="M439.9,382.4a14.68,14.68,0,0,1,8.71-10.93,18.39,18.39,0,0,0-2.56,10.93Z" style="fill:#ebebeb"></path><path d="M186.3,382.4a14.68,14.68,0,0,0-8.71-10.93,18.39,18.39,0,0,1,2.56,10.93Z" style="fill:#ebebeb"></path><path d="M58.87,382.4s-.49-12.8-5.84-16.52c2.19,5.23,1.72,16.52,1.72,16.52Z" style="fill:#ebebeb"></path><path d="M56.86,382.4s.5-7.35,5.85-9.48c-2.2,3-1.72,9.48-1.72,9.48Z" style="fill:#ebebeb"></path><path d="M190.88,382.4s-.54-12.12-10.24-16.52c4.34,6.22,4.09,16.52,4.09,16.52Z" style="fill:#ebebeb"></path><polygon points="93.68 300.81 100.74 350.61 101.44 355.59 105.97 355.59 105.26 350.61 98.2 300.81 93.68 300.81" style="fill:#e0e0e0"></polygon><polygon points="287.67 300.81 294.73 350.61 295.43 355.59 299.96 355.59 299.25 350.61 292.19 300.81 287.67 300.81" style="fill:#e0e0e0"></polygon><polygon points="122.67 350.61 123.38 355.59 127.19 382.44 131.72 382.44 127.91 355.59 127.21 350.61 122.67 350.61" style="fill:#e6e6e6"></polygon><polygon points="316.67 350.61 317.38 355.59 321.18 382.44 325.7 382.44 321.9 355.59 321.2 350.61 316.67 350.61" style="fill:#e6e6e6"></polygon><polygon points="293.81 350.61 293.1 355.59 289.29 382.44 284.76 382.44 288.57 355.59 289.27 350.61 293.81 350.61" style="fill:#e6e6e6"></polygon><polygon points="99.81 350.61 99.1 355.59 95.3 382.44 90.78 382.44 94.58 355.59 95.29 350.61 99.81 350.61" style="fill:#e6e6e6"></polygon><polygon points="87.17 307.74 294.5 307.74 290.65 293.87 83.32 293.87 87.17 307.74" style="fill:#f5f5f5"></polygon><polygon points="91.9 307.74 299.24 307.74 295.39 293.87 88.05 293.87 91.9 307.74" style="fill:#e6e6e6"></polygon><polygon points="90.06 325.03 297.39 325.03 293.54 311.17 86.2 311.17 90.06 325.03" style="fill:#f5f5f5"></polygon><polygon points="94.79 325.03 302.12 325.03 298.27 311.17 90.94 311.17 94.79 325.03" style="fill:#e6e6e6"></polygon><polygon points="92.94 342.35 300.28 342.35 296.43 328.49 89.09 328.49 92.94 342.35" style="fill:#f5f5f5"></polygon><polygon points="97.68 342.35 305.01 342.35 301.16 328.49 93.83 328.49 97.68 342.35" style="fill:#e6e6e6"></polygon><rect x="117.46" y="350.61" width="206.42" height="4.98" style="fill:#e6e6e6"></rect><rect x="89.09" y="350.61" width="28.37" height="4.98" style="fill:#f5f5f5"></rect><path d="M73.5,147.47c-3.87-8.36-.79-14.31,8.67-14.31,5.93,0,13.28,2.34,20.45,6.15.81-2.17,3.09-3.47,6.75-3.47,6.46,0,15.35,4,22.33,9.71a12.8,12.8,0,0,1,7.27-2.17c6.18-.26,13.66,2.06,20.16,5.82a4,4,0,0,1,2.86-1.08c3.56-.15,8.38,2.19,10.77,5.21.15.19.28.37.41.56H68.7C65.4,150.92,69.05,147.62,73.5,147.47Z" style="fill:#f5f5f5"></path><path d="M347.91,164.71a6.85,6.85,0,0,1,.79,0c-.24-2.73,1.17-4.48,4.2-4.48a16.46,16.46,0,0,1,7.59,2.45c-.78-5.3,1.73-8.75,7.39-8.75,4.57,0,10.36,2.24,16.08,5.9.5-2.08,2.18-3.33,5-3.33,5,0,12,3.86,17.7,9.3h0a8,8,0,0,1,5.48-2.08c4.73-.25,10.61,2,15.82,5.58a2.55,2.55,0,0,1,2.15-1c2.59-.13,6.15,1.86,8.23,4.52H343.75C341.52,168.7,343.29,165.17,347.91,164.71Z" style="fill:#f5f5f5"></path><path d="M188.78,104.23a6.68,6.68,0,0,1,.78,0c-.24-2.74,1.18-4.48,4.2-4.48a16.46,16.46,0,0,1,7.6,2.45c-.78-5.31,1.72-8.76,7.38-8.76,4.58,0,10.36,2.25,16.08,5.91.5-2.08,2.18-3.33,5-3.33,5,0,12,3.85,17.7,9.3h0a8.09,8.09,0,0,1,5.48-2.09c4.73-.24,10.61,2,15.82,5.58a2.56,2.56,0,0,1,2.15-1c2.59-.14,6.16,1.85,8.23,4.52H184.61C182.39,108.22,184.16,104.69,188.78,104.23Z" style="fill:#f5f5f5"></path><polygon points="424.77 365.1 407 347.33 393.16 347.33 408.52 362.69 404.3 362.69 404.3 382.4 420.55 382.4 420.55 365.1 424.77 365.1" style="fill:#ebebeb"></polygon><polygon points="410.93 365.1 393.16 347.33 375.39 365.1 382.02 365.1 382.02 382.4 404.3 382.4 404.3 365.1 410.93 365.1" style="fill:#fafafa"></polygon></g><g id="freepik--Shadow--inject-7"><ellipse cx="250" cy="416.24" rx="193.89" ry="11.32" style="fill:#f5f5f5"></ellipse></g><g id="freepik--Houses--inject-7"><polygon points="401.16 107.72 374.51 81.07 353.75 81.07 376.79 104.11 370.45 104.11 370.45 133.66 394.82 133.66 394.82 107.72 401.16 107.72" style="fill:#407BFF"></polygon><polygon points="401.16 107.72 374.51 81.07 353.75 81.07 376.79 104.11 370.45 104.11 370.45 133.66 394.82 133.66 394.82 107.72 401.16 107.72" style="fill:#fff;opacity:0.4"></polygon><polygon points="380.4 107.72 353.75 81.07 327.1 107.72 337.05 107.72 337.05 133.66 370.45 133.66 370.45 107.72 380.4 107.72" style="fill:#407BFF"></polygon><polygon points="380.4 107.72 353.75 81.07 327.1 107.72 337.05 107.72 337.05 133.66 370.45 133.66 370.45 107.72 380.4 107.72" style="fill:#fff;opacity:0.7000000000000001"></polygon><polygon points="418.32 214.1 391.67 187.44 370.91 187.44 393.95 210.48 387.61 210.48 387.61 240.03 411.98 240.03 411.98 214.1 418.32 214.1" style="fill:#407BFF"></polygon><polygon points="418.32 214.1 391.67 187.44 370.91 187.44 393.95 210.48 387.61 210.48 387.61 240.03 411.98 240.03 411.98 214.1 418.32 214.1" style="fill:#fff;opacity:0.4"></polygon><polygon points="397.56 214.1 370.91 187.44 344.26 214.1 354.2 214.1 354.2 240.03 387.61 240.03 387.61 214.1 397.56 214.1" style="fill:#407BFF"></polygon><polygon points="397.56 214.1 370.91 187.44 344.26 214.1 354.2 214.1 354.2 240.03 387.61 240.03 387.61 214.1 397.56 214.1" style="fill:#fff;opacity:0.7000000000000001"></polygon><polygon points="298.38 241.81 271.72 215.16 250.97 215.16 274.01 238.19 267.67 238.19 267.67 267.75 292.04 267.75 292.04 241.81 298.38 241.81" style="fill:#407BFF"></polygon><polygon points="298.38 241.81 271.72 215.16 250.97 215.16 274.01 238.19 267.67 238.19 267.67 267.75 292.04 267.75 292.04 241.81 298.38 241.81" style="fill:#fff;opacity:0.4"></polygon><polygon points="277.62 241.81 250.97 215.16 224.32 241.81 234.26 241.81 234.26 267.74 267.67 267.74 267.67 241.81 277.62 241.81" style="fill:#407BFF"></polygon><polygon points="277.62 241.81 250.97 215.16 224.32 241.81 234.26 241.81 234.26 267.74 267.67 267.74 267.67 241.81 277.62 241.81" style="fill:#fff;opacity:0.7000000000000001"></polygon><polygon points="296.79 152.26 282.45 152.26 280.4 150.22 263.75 119.22 296.79 152.26" style="fill:#2f54c6"></polygon><rect x="282.41" y="145.74" width="30.21" height="36.64" transform="translate(595.02 328.11) rotate(180)" style="fill:#407BFF"></rect><rect x="282.41" y="145.74" width="30.21" height="36.64" transform="translate(595.02 328.11) rotate(180)" style="opacity:0.30000000000000004"></rect><polygon points="294.74 150.22 320.48 150.22 287.43 117.17 261.7 117.17 294.74 150.22" style="fill:#407BFF"></polygon><polygon points="294.74 150.22 320.48 150.22 287.43 117.17 261.7 117.17 294.74 150.22" style="opacity:0.30000000000000004"></polygon><polygon points="282.4 140.95 282.4 182.37 240.99 182.37 240.99 140.95 261.7 120.84 261.91 121.05 263.75 122.83 282.4 140.95" style="fill:#407BFF"></polygon><polygon points="263.75 119.22 263.75 133.56 245.04 152.26 240.99 152.26 240.99 141.98 261.91 121.05 263.75 119.22" style="opacity:0.30000000000000004"></polygon><polygon points="294.74 150.22 280.4 150.22 261.7 131.51 261.7 117.17 294.74 150.22" style="fill:#407BFF"></polygon><polygon points="228.65 150.22 242.99 150.22 261.7 131.51 261.7 117.17 228.65 150.22" style="fill:#407BFF"></polygon></g><g id="freepik--Character--inject-7"><path d="M224,192.38c-8.53,6.92-17.33,13.43-26.18,19.83S180,224.83,171,231s-18.15,12.11-27.34,18c-4.57,3-9.21,5.84-13.82,8.76a25.59,25.59,0,0,1-7.44,3.52A22.06,22.06,0,0,1,118,262a18.41,18.41,0,0,1-5-.27,10,10,0,0,1-7.8-11.82c0-.15.07-.34.11-.5a18,18,0,0,1,2-4.6,21.52,21.52,0,0,1,2.59-3.57,25.63,25.63,0,0,1,6.43-5.14c4.65-2.86,9.26-5.77,13.93-8.57,9.31-5.69,18.71-11.22,28.16-16.68s19-10.75,28.63-15.91,19.34-10.19,29.3-14.83A7.31,7.31,0,0,1,224,192.38Z" style="fill:#407BFF"></path><path d="M224,192.38c-8.53,6.92-17.33,13.43-26.18,19.83S180,224.83,171,231s-18.15,12.11-27.34,18c-4.57,3-9.21,5.84-13.82,8.76a25.59,25.59,0,0,1-7.44,3.52A22.06,22.06,0,0,1,118,262a18.41,18.41,0,0,1-5-.27,10,10,0,0,1-7.8-11.82c0-.15.07-.34.11-.5a18,18,0,0,1,2-4.6,21.52,21.52,0,0,1,2.59-3.57,25.63,25.63,0,0,1,6.43-5.14c4.65-2.86,9.26-5.77,13.93-8.57,9.31-5.69,18.71-11.22,28.16-16.68s19-10.75,28.63-15.91,19.34-10.19,29.3-14.83A7.31,7.31,0,0,1,224,192.38Z" style="fill:#407BFF"></path><path d="M224,192.38c-8.53,6.92-17.33,13.43-26.18,19.83S180,224.83,171,231s-18.15,12.11-27.34,18c-4.57,3-9.21,5.84-13.82,8.76a25.59,25.59,0,0,1-7.44,3.52A22.06,22.06,0,0,1,118,262a18.41,18.41,0,0,1-5-.27,10,10,0,0,1-7.8-11.82c0-.15.07-.34.11-.5a18,18,0,0,1,2-4.6,21.52,21.52,0,0,1,2.59-3.57,25.63,25.63,0,0,1,6.43-5.14c4.65-2.86,9.26-5.77,13.93-8.57,9.31-5.69,18.71-11.22,28.16-16.68s19-10.75,28.63-15.91,19.34-10.19,29.3-14.83A7.31,7.31,0,0,1,224,192.38Z" style="fill:#fff;opacity:0.5"></path><polygon points="187.1 407.63 195.26 405.74 191.44 386.71 183.28 388.6 187.1 407.63" style="fill:#ebb376"></polygon><path d="M132.08,180.23c-1.13,4-2.22,8.21-3.26,12.33s-2,8.3-2.8,12.46c-.44,2.07-.82,4.19-1.15,6.14s-.52,4-.64,6.05a59.49,59.49,0,0,0,0,6.12c0,1,.13,2,.23,3.06s.28,2.07.42,2.94l-4,1.51a26.33,26.33,0,0,1-1.35-3.32,33.22,33.22,0,0,1-1-3.33,45.37,45.37,0,0,1-1.12-6.84,53.85,53.85,0,0,1-.1-7c.16-2.36.44-4.53.75-6.73.63-4.39,1.44-8.74,2.4-13s2-8.55,3.35-12.86Z" style="fill:#ebb376"></path><path d="M120.31,181.61l8.41,6.7,5.05,4s.53-1.41,1.17-3.43c1.22-3.9,2.81-10.08,1.71-12.92-1.73-4.5-5-8.56-9.14-7.66C124,169.09,120.31,181.61,120.31,181.61Z" style="fill:#263238"></path><polygon points="131.93 407.69 140.3 407.69 139.65 388.29 131.27 388.29 131.93 407.69" style="fill:#ebb376"></polygon><polygon points="191.44 386.72 193.49 396.91 185.25 398.41 183.27 388.61 191.44 386.72" style="fill:#da9d62"></polygon><polygon points="131.27 388.29 139.65 388.29 139.98 398.29 131.6 398.29 131.27 388.29" style="fill:#da9d62"></polygon><path d="M158.57,219.12s-4.86,57.49-9.9,89.89c-4.07,26.17-7.29,87.35-7.29,87.35H130s-5.44-59.08-3.37-85c5.23-65.49-4-77.09,6.95-92.27Z" style="fill:#407BFF"></path><path d="M158.57,219.12s-4.86,57.49-9.9,89.89c-4.07,26.17-7.29,87.35-7.29,87.35H130s-5.44-59.08-3.37-85c5.23-65.49-4-77.09,6.95-92.27Z" style="opacity:0.6000000000000001"></path><path d="M121.43,230.19l-4.94,3.36.7,2.87s10.29-5.34,7.54-7.48Z" style="fill:#ebb376"></path><path d="M143.83,408.18a10.18,10.18,0,0,1-2.21-.3.22.22,0,0,1-.15-.16.2.2,0,0,1,.09-.2c.29-.19,2.82-1.83,3.8-1.39a.67.67,0,0,1,.4.56,1.13,1.13,0,0,1-.33,1.05A2.38,2.38,0,0,1,143.83,408.18Zm-1.65-.59c1.46.3,2.56.24,3-.14a.77.77,0,0,0,.21-.71.3.3,0,0,0-.17-.25C144.69,406.26,143.22,407,142.18,407.59Z" style="fill:#407BFF"></path><path d="M141.67,407.88a.16.16,0,0,1-.1,0,.21.21,0,0,1-.1-.17c0-.11,0-2.52.92-3.33a1,1,0,0,1,.84-.26.69.69,0,0,1,.67.55c.19,1-1.34,2.76-2.13,3.21A.18.18,0,0,1,141.67,407.88Zm1.42-3.39a.7.7,0,0,0-.44.17,4.52,4.52,0,0,0-.77,2.64c.79-.64,1.75-2,1.63-2.57,0-.09-.07-.21-.33-.24Z" style="fill:#407BFF"></path><path d="M196,404.48a.21.21,0,0,1-.16-.33c.27-.32,2.6-3.06,3.79-3.06h.08a.61.61,0,0,1,.51.35,1.08,1.08,0,0,1,0,1c-.52,1.1-2.87,1.72-4.23,2Zm3.62-3c-.65,0-2.09,1.36-3.08,2.47,1.83-.43,3.07-1,3.36-1.65a.67.67,0,0,0,0-.67.25.25,0,0,0-.2-.15Z" style="fill:#407BFF"></path><path d="M196,404.48h0a.17.17,0,0,1-.14-.13c0-.09-.72-2.25-.08-3.46a1.44,1.44,0,0,1,.88-.74c.53-.16.79,0,.9.23.51.82-.62,3.24-1.37,4A.21.21,0,0,1,196,404.48Zm1-4a.74.74,0,0,0-.23,0,1.05,1.05,0,0,0-.65.54,4.61,4.61,0,0,0,0,2.8c.71-1,1.4-2.79,1.1-3.28A.23.23,0,0,0,196.94,400.48Z" style="fill:#407BFF"></path><path d="M142.4,148.07c1,5,3,15-.45,18.35,0,0,1.36,5,10.6,5,10.15,0,4.85-5,4.85-5-5.54-1.32-5.4-5.43-4.43-9.3Z" style="fill:#ebb376"></path><path d="M162.58,137.41a.39.39,0,0,1-.23-.07.4.4,0,0,1-.09-.56,4,4,0,0,1,3.19-1.7.4.4,0,0,1,0,.79,3.15,3.15,0,0,0-2.52,1.38A.39.39,0,0,1,162.58,137.41Z" style="fill:#263238"></path><path d="M164.8,142.18a17.91,17.91,0,0,0,2.24,4.41,2.93,2.93,0,0,1-2.43.35Z" style="fill:#de5753"></path><path d="M164.24,141c0,.68.31,1.24.75,1.25s.82-.51.85-1.19-.31-1.23-.75-1.25S164.27,140.33,164.24,141Z" style="fill:#263238"></path><path d="M164.89,139.84l1.64-.4S165.65,140.67,164.89,139.84Z" style="fill:#263238"></path><path d="M141,406.72h-9.41a.65.65,0,0,0-.67.57l-1.07,7.44a1.33,1.33,0,0,0,1.34,1.49c3.28-.05,4.86-.25,9-.25,2.55,0,6.26.27,9.78.27s3.7-3.48,2.24-3.79c-6.56-1.42-7.6-3.36-9.81-5.22A2.21,2.21,0,0,0,141,406.72Z" style="fill:#263238"></path><path d="M195.1,403.59l-8.69,3.61a.66.66,0,0,0-.4.78l1.86,7.29a1.34,1.34,0,0,0,1.81.86c3-1.31,4.4-2.09,8.22-3.68,2.35-1,7.32-2.75,10.57-4.1s2.08-4.63.61-4.36c-6.6,1.22-9.74.41-12.49-.46A2.18,2.18,0,0,0,195.1,403.59Z" style="fill:#263238"></path><path d="M176.18,176.79c1.63,3.84,3.39,7.77,5.17,11.59q1.35,2.88,2.81,5.66c1,1.86,2,3.68,3,5.42.53.86,1.06,1.72,1.61,2.51l.82,1.14a4.5,4.5,0,0,0,.57.66,6.89,6.89,0,0,0,3.89,1.66c3.41.49,7.69-.2,11.52-1.23l1.78,3.85a28.48,28.48,0,0,1-3.14,1.63,28.07,28.07,0,0,1-3.27,1.28,23.46,23.46,0,0,1-7.3,1.25,14.83,14.83,0,0,1-4.1-.54,12.47,12.47,0,0,1-4.11-2,12.71,12.71,0,0,1-1.75-1.61c-.45-.51-.78-.94-1.18-1.42-.75-.94-1.42-1.89-2.09-2.84a103.6,103.6,0,0,1-6.72-11.7c-2-4-3.8-8-5.46-12.14Z" style="fill:#ebb376"></path><path d="M204.71,208.52l9.14-1.44-2.43-5.18s-7.08,1.23-8.44,4.43Z" style="fill:#ebb376"></path><polygon points="213.84 203.04 212.84 200.83 211.42 201.9 213.84 207.08 213.84 203.04" style="fill:#ebb376"></polygon><path d="M141.64,137.79c.18,8.31.08,11.83,4.1,16.25,6,6.65,16.22,4.61,18.52-3.59,2.07-7.38,1.42-19.73-6.56-23.35A11.34,11.34,0,0,0,141.64,137.79Z" style="fill:#ebb376"></path><path d="M134.94,122.78c8.54-6.19,18.08-2.68,23.3,1.6,5.46,4.48,4.59,13.09,1.25,16.65a4.4,4.4,0,0,1,.56,3.61v0a10.85,10.85,0,0,1-8,12.2l-.47.12c-10.67,2.54-23-4.68-24.86-15.48C125.59,134.89,127.39,128.24,134.94,122.78Z" style="fill:#263238"></path><path d="M157.58,141.64a6.86,6.86,0,0,0,1.9,4.17c1.48,1.53,3,.65,3.27-1.16.23-1.63-.26-4.39-2.06-5.26S157.45,139.79,157.58,141.64Z" style="fill:#ebb376"></path><path d="M147,246c-.95,17.18,3.19,30.15,5.08,37.74,1.34-11.22,2.57-22.93,3.6-33.26C152.15,238.78,147.69,233.07,147,246Z" style="opacity:0.30000000000000004"></path><polygon points="142.95 396.58 128.4 396.58 127.63 391.48 143.03 390.96 142.95 396.58" style="fill:#407BFF"></polygon><path d="M128.72,188.31l5.05,4s.53-1.41,1.17-3.43l-3-14.85Z" style="opacity:0.30000000000000004"></path><path d="M139.7,124.17c2.61-2.89,11.48-7.3,19.09-3.84a12.4,12.4,0,0,1,7.26,11.32l-6.86,4.6Z" style="fill:#263238"></path><path d="M132.7,131.76c3.77-3.09,8-14.29,0-10.39S122.27,140.31,132.7,131.76Z" style="fill:#407BFF"></path><path d="M133.55,124.58c1.63-4.76-9.12-14.23-16.37-5.23S128.86,138.28,133.55,124.58Z" style="fill:#263238"></path><path d="M150.37,131.22c-6.25-2.66-9.36-12.74,1.37-12.45S162.16,136.25,150.37,131.22Z" style="fill:#407BFF"></path><path d="M148.35,126c-3.79-4.73.4-16.89,11.27-13S157.05,136.81,148.35,126Z" style="fill:#263238"></path><path d="M167.56,219.12S177,283.62,180.32,309c3.45,26.35,13.53,85.43,13.53,85.43l-11.2,1.71s-17.7-56.35-22.63-82c-5.38-27.95-16-95-16-95Z" style="fill:#407BFF"></path><path d="M167.56,219.12S177,283.62,180.32,309c3.45,26.35,13.53,85.43,13.53,85.43l-11.2,1.71s-17.7-56.35-22.63-82c-5.38-27.95-16-95-16-95Z" style="opacity:0.6000000000000001"></path><path d="M171.56,168.57c4.16,1,9.29,12.44,9.29,12.44l-9.91,12.7s-10.24-14.49-8.87-18.91C163.49,170.19,166.51,167.34,171.56,168.57Z" style="fill:#263238"></path><path d="M158,168.05c1.37.2.1-2.93-.47-3.26-1.31-.78-18-2.35-17.81-.59A4.71,4.71,0,0,0,141,167C141.75,167.5,146,166.12,158,168.05Z" style="fill:#407BFF"></path><path d="M158,168.05c1.37.2.1-2.93-.47-3.26-1.31-.78-18-2.35-17.81-.59A4.71,4.71,0,0,0,141,167C141.75,167.5,146,166.12,158,168.05Z" style="fill:#fff;opacity:0.6000000000000001"></path><path d="M171.56,168.57s4,1.4-4,50.55h-34c.57-13.84.59-22.38-6-50.8a100.27,100.27,0,0,1,14.44-1.9,107.54,107.54,0,0,1,15.45,0C164,167,171.56,168.57,171.56,168.57Z" style="fill:#263238"></path><path d="M133,217.13l-1.53,3c-.12.24.16.48.55.48h35.68c.3,0,.56-.15.58-.35l.3-3c0-.21-.24-.39-.58-.39H133.58A.6.6,0,0,0,133,217.13Z" style="fill:#407BFF"></path><path d="M133,217.13l-1.53,3c-.12.24.16.48.55.48h35.68c.3,0,.56-.15.58-.35l.3-3c0-.21-.24-.39-.58-.39H133.58A.6.6,0,0,0,133,217.13Z" style="fill:#fff;opacity:0.6000000000000001"></path><path d="M137.66,221h-.93c-.18,0-.32-.1-.31-.21l.44-4c0-.12.17-.21.35-.21h.93c.18,0,.32.09.31.21l-.44,4C138,220.88,137.84,221,137.66,221Z" style="fill:#407BFF"></path><path d="M160,221h-.92c-.19,0-.33-.1-.31-.21l.43-4c0-.12.17-.21.36-.21h.92c.18,0,.32.09.31.21l-.43,4C160.36,220.88,160.2,221,160,221Z" style="fill:#407BFF"></path><path d="M137.66,221h-.93c-.18,0-.32-.1-.31-.21l.44-4c0-.12.17-.21.35-.21h.93c.18,0,.32.09.31.21l-.44,4C138,220.88,137.84,221,137.66,221Z" style="opacity:0.6000000000000001"></path><path d="M160,221h-.92c-.19,0-.33-.1-.31-.21l.43-4c0-.12.17-.21.36-.21h.92c.18,0,.32.09.31.21l-.43,4C160.36,220.88,160.2,221,160,221Z" style="opacity:0.6000000000000001"></path><polygon points="195.5 394.43 181.16 396.87 179.53 391.46 194.88 388.83 195.5 394.43" style="fill:#407BFF"></polygon><path d="M338.41,115.26a72.81,72.81,0,1,0-23.2,100.33A72.81,72.81,0,0,0,338.41,115.26Zm-110.49,69a57.45,57.45,0,1,1,79.16,18.31A57.45,57.45,0,0,1,227.92,184.25Z" style="fill:#407BFF"></path><path d="M338.41,115.26a72.81,72.81,0,1,0-23.2,100.33A72.81,72.81,0,0,0,338.41,115.26Zm-110.49,69a57.45,57.45,0,1,1,79.16,18.31A57.45,57.45,0,0,1,227.92,184.25Z" style="fill:#407BFF"></path><path d="M338.41,115.26a72.81,72.81,0,1,0-23.2,100.33A72.81,72.81,0,0,0,338.41,115.26Zm-110.49,69a57.45,57.45,0,1,1,79.16,18.31A57.45,57.45,0,0,1,227.92,184.25Z" style="fill:#fff;opacity:0.5"></path><path d="M330.2,120.39a63.13,63.13,0,1,1-87-20.12A63.13,63.13,0,0,1,330.2,120.39Z" style="fill:#fafafa;opacity:0.2"></path><path d="M339.17,144.89l-98,61.18a63.11,63.11,0,0,1-19.41-21l107-66.81A63.16,63.16,0,0,1,339.17,144.89Z" style="fill:#e6e6e6;opacity:0.1"></path></g></svg>