<svg xmlns="http://www.w3.org/2000/svg" viewBox="0 0 500 500"><g id="freepik--Floor--inject-11"><path id="freepik--floor--inject-11" d="M85.59,386.9c90.37,48.43,236.89,48.43,327.26,0s90.36-126.94,0-175.37-236.89-48.43-327.26,0S-4.77,338.48,85.59,386.9Z" style="fill:#f5f5f5"></path></g><g id="freepik--Clouds--inject-11"><g id="freepik--clouds--inject-11"><path d="M115,73.54l-7,4c0-.31.06-.62.06-.92v-2c0-3.58-2.52-5-5.62-3.24a10.76,10.76,0,0,0-3.35,3.22c-.51-4.51-4-6.19-8.34-3.71-4.64,2.68-8.41,9.2-8.41,14.57v3A8,8,0,0,0,83.12,92l-5.77,3.33a6.9,6.9,0,0,0-3.12,5.4c0,2,1.4,2.8,3.12,1.8L115,80.74a6.89,6.89,0,0,0,3.12-5.4C118.14,73.36,116.74,72.55,115,73.54Z" style="fill:#ebebeb"></path><path d="M144.77,93.8l-5.25,3a5.62,5.62,0,0,0,0-.7V94.61c0-2.7-1.9-3.8-4.24-2.45a8.32,8.32,0,0,0-2.53,2.43c-.38-3.4-3.05-4.66-6.29-2.79a14,14,0,0,0-6.35,11v2.27a6.08,6.08,0,0,0,.54,2.64l-4.36,2.51a5.21,5.21,0,0,0-2.35,4.08c0,1.5,1.05,2.11,2.35,1.36l28.43-16.42a5.19,5.19,0,0,0,2.35-4.07C147.12,93.66,146.07,93.05,144.77,93.8Z" style="fill:#ebebeb"></path><path d="M425.75,121.07l-5.25,3a5.58,5.58,0,0,0,0-.7v-1.52c0-2.7-1.9-3.8-4.24-2.44a8.09,8.09,0,0,0-2.53,2.43c-.38-3.4-3-4.67-6.29-2.8a14,14,0,0,0-6.34,11v2.27a6,6,0,0,0,.53,2.64l-4.35,2.51a5.22,5.22,0,0,0-2.36,4.08c0,1.5,1.06,2.11,2.36,1.36l28.43-16.42a5.19,5.19,0,0,0,2.35-4.07C428.1,120.93,427.05,120.32,425.75,121.07Z" style="fill:#ebebeb"></path></g></g><g id="freepik--Houses--inject-11"><g id="freepik--House--inject-11"><polygon points="112.35 218.44 34.36 263.47 34.36 267.22 105.85 308.49 183.84 263.47 183.84 259.72 112.35 218.44" style="fill:#BA68C8"></polygon><polyline points="34.36 263.47 105.85 304.74 105.85 308.49 34.36 267.22 34.36 263.47" style="opacity:0.15"></polyline><polygon points="105.85 304.74 183.84 259.72 183.84 263.47 105.85 308.49 105.85 304.74" style="opacity:0.1"></polygon><rect x="172.21" y="249.09" width="6.81" height="0.56" transform="translate(-126.24 293.08) rotate(-63.09)" style="fill:#455a64"></rect><rect x="172.18" y="245.44" width="0.56" height="5.71" transform="translate(-104.86 127.94) rotate(-31.76)" style="fill:#455a64"></rect><path d="M174.54,245.14v14.64a.22.22,0,0,1-.13.19.7.7,0,0,1-.66,0,.22.22,0,0,1-.14-.19V245.14Z" style="fill:#455a64"></path><path d="M185.61,240.59a6.8,6.8,0,1,1-6.8-6.8A6.81,6.81,0,0,1,185.61,240.59Z" style="fill:#BA68C8"></path><path d="M180.94,238.85c.88-2.76,1.81-3.84,1.22-4.18a6.8,6.8,0,1,0,1.89,10.24C182,245.5,179.8,242.43,180.94,238.85Z" style="opacity:0.2"></path><path d="M172.88,242.51a4.78,4.78,0,1,1-4.78-4.78A4.78,4.78,0,0,1,172.88,242.51Z" style="fill:#BA68C8"></path><path d="M168.1,237.73a4.73,4.73,0,0,0-2.79.91c-.13,2.91,2.35,5.76,1.65,6.72s-2.39.37-3-.45a4.78,4.78,0,1,0,4.13-7.18Z" style="opacity:0.2"></path><circle cx="174.08" cy="237.36" r="8.77" style="fill:#BA68C8"></circle><path d="M182.61,239.36a8.77,8.77,0,1,1-12.85-9.63,8.89,8.89,0,0,0-2,1.61,8.76,8.76,0,0,0,14.9,8Z" style="opacity:0.1"></path><rect x="42.26" y="252.82" width="6.81" height="0.56" transform="translate(-200.69 179.25) rotate(-63.09)" style="fill:#455a64"></rect><rect x="42.22" y="249.16" width="0.56" height="5.71" transform="translate(-126.28 60.1) rotate(-31.76)" style="fill:#455a64"></rect><path d="M44.59,248.87v14.64a.23.23,0,0,1-.14.19.76.76,0,0,1-.66,0,.22.22,0,0,1-.13-.19V248.87Z" style="fill:#455a64"></path><path d="M55.66,244.31a6.8,6.8,0,1,1-6.8-6.8A6.8,6.8,0,0,1,55.66,244.31Z" style="fill:#BA68C8"></path><path d="M51,242.57c.88-2.76,1.81-3.84,1.22-4.17a6.68,6.68,0,0,0-3.35-.89,6.8,6.8,0,1,0,5.24,11.13C52.09,249.23,49.85,246.15,51,242.57Z" style="opacity:0.2"></path><path d="M42.93,246.24a4.78,4.78,0,1,1-4.78-4.78A4.77,4.77,0,0,1,42.93,246.24Z" style="fill:#BA68C8"></path><path d="M38.15,241.46a4.72,4.72,0,0,0-2.79.9c-.13,2.92,2.34,5.77,1.65,6.72s-2.4.37-3-.44a4.78,4.78,0,1,0,4.13-7.18Z" style="opacity:0.2"></path><circle cx="44.12" cy="241.08" r="8.77" style="fill:#BA68C8"></circle><path d="M52.65,243.09a8.76,8.76,0,1,1-12.84-9.64,9.17,9.17,0,0,0-2.05,1.61,8.76,8.76,0,0,0,14.89,8Z" style="opacity:0.1"></path><polygon points="130.05 279.51 140.94 273.23 150.71 278.87 139.83 285.14 130.05 279.51" style="fill:#f0f0f0"></polygon><polygon points="53.87 263.47 53.86 229.7 105.86 259.71 105.86 293.49 53.87 263.47" style="fill:#f0f0f0"></polygon><polygon points="53.86 243.1 105.86 273.13 105.86 259.71 53.86 229.7 53.86 243.1" style="fill:#e0e0e0"></polygon><polygon points="164.34 259.71 164.34 226.88 144.84 222.19 144.84 218.44 105.86 259.71 105.86 293.49 164.34 259.71" style="fill:#fafafa"></polygon><polygon points="144.84 218.44 144.84 222.19 167.59 227.82 167.59 224.07 144.84 218.44" style="fill:#263238"></polygon><polygon points="115.61 194.05 167.59 224.07 144.84 218.44 92.85 188.42 115.61 194.05" style="fill:#37474f"></polygon><polygon points="102.6 265.36 144.85 218.44 144.85 214.69 99.35 267.22 102.6 265.36" style="fill:#37474f"></polygon><polygon points="92.86 184.67 144.85 214.69 99.43 267.27 47.36 237.2 92.86 184.67" style="fill:#455a64"></polygon><polygon points="76.55 233.31 83.1 237.09 83.1 246.58 76.55 242.83 76.55 233.31" style="fill:#263238"></polygon><polygon points="83.1 237.09 89.64 233.31 89.64 239.08 83.1 246.58 83.1 237.09" style="fill:#37474f"></polygon><polygon points="83.1 226.88 75.87 231.05 75.87 232.94 83.1 237.09 90.32 232.94 90.32 231.05 83.1 226.88" style="fill:#f5f5f5"></polygon><polygon points="75.87 232.94 83.1 237.09 83.1 235.2 75.87 231.05 75.87 232.94" style="fill:#e0e0e0"></polygon><polygon points="90.32 232.94 83.1 237.09 83.1 235.2 90.32 231.05 90.32 232.94" style="fill:#ebebeb"></polygon><polygon points="78.3 231.05 83.1 228.28 87.9 231.05 83.1 233.81 78.3 231.05" style="fill:#BA68C8"></polygon><polygon points="83.1 228.28 83.1 233.81 78.3 231.05 83.1 228.28" style="fill:#37474f"></polygon><polygon points="83.1 228.28 87.9 231.05 83.1 233.81 83.1 228.28" style="fill:#263238"></polygon><polygon points="110.07 268.54 124.7 260.1 124.7 271.36 110.07 279.8 110.07 268.54" style="fill:#455a64"></polygon><polygon points="124.05 270.98 124.05 260.48 110.07 268.54 110.07 279.05 124.05 270.98" style="fill:#e0e0e0"></polygon><polygon points="124.7 271.36 124.05 270.98 110.07 279.05 110.07 279.8 124.7 271.36" style="fill:#37474f"></polygon><polygon points="110.07 274.17 124.7 265.73 124.7 264.97 110.07 273.41 110.07 274.17" style="fill:#455a64"></polygon><polygon points="145.82 247.89 160.44 239.45 160.44 250.71 145.82 259.15 145.82 247.89" style="fill:#455a64"></polygon><polygon points="159.79 250.33 159.79 239.83 145.82 247.89 145.82 258.4 159.79 250.33" style="fill:#e0e0e0"></polygon><polygon points="160.44 250.71 159.79 250.33 145.82 258.4 145.82 259.15 160.44 250.71" style="fill:#37474f"></polygon><polygon points="145.82 253.52 160.44 245.08 160.44 244.32 145.82 252.77 145.82 253.52" style="fill:#455a64"></polygon><polygon points="130.05 279.51 130.05 257 140.94 250.72 140.94 273.23 130.05 279.51" style="fill:#37474f"></polygon><polygon points="140.56 272.94 140.56 250.94 130.05 257 130.05 279 140.56 272.94" style="fill:#455a64"></polygon><polygon points="140.94 250.72 140.56 250.94 140.56 272.94 140.94 273.23 140.94 250.72" style="fill:#263238"></polygon><polygon points="93.99 264.13 86.35 259.72 86.35 270.97 93.99 275.38 93.99 264.13" style="fill:#455a64"></polygon><polygon points="87 270.59 87 260.09 93.99 264.13 93.99 274.63 87 270.59" style="fill:#fafafa"></polygon><polygon points="86.35 270.97 87 270.59 93.99 274.63 93.99 275.38 86.35 270.97" style="fill:#37474f"></polygon><polygon points="93.99 269.72 86.35 265.34 86.35 264.58 93.99 268.96 93.99 269.72" style="fill:#455a64"></polygon><polygon points="87 260.09 93.99 264.13 93.99 266.3 87 262.29 87 260.09" style="fill:#f5f5f5"></polygon><polygon points="71.24 250.99 63.6 246.58 63.6 257.84 71.24 262.25 71.24 250.99" style="fill:#455a64"></polygon><polygon points="64.26 257.46 64.26 246.96 71.24 250.99 71.24 261.49 64.26 257.46" style="fill:#fafafa"></polygon><polygon points="63.6 257.84 64.26 257.46 71.24 261.49 71.24 262.25 63.6 257.84" style="fill:#37474f"></polygon><polygon points="71.24 256.58 63.6 252.2 63.6 251.44 71.24 255.82 71.24 256.58" style="fill:#455a64"></polygon><polygon points="64.26 246.96 71.24 250.99 71.24 253.07 64.26 249.07 64.26 246.96" style="fill:#f5f5f5"></polygon></g><g id="freepik--house--inject-11"><polygon points="382.86 215.16 304.87 260.19 304.87 263.94 382.86 308.97 460.86 263.94 460.86 260.19 382.86 215.16" style="fill:#BA68C8"></polygon><polyline points="304.87 260.19 382.87 305.22 382.86 308.97 304.87 263.94 304.87 260.19" style="opacity:0.15"></polyline><polygon points="382.87 305.22 460.86 260.19 460.86 263.94 382.86 308.97 382.87 305.22" style="opacity:0.1"></polygon><rect x="449.46" y="249.69" width="6.81" height="0.56" transform="translate(24.98 540.63) rotate(-63.09)" style="fill:#455a64"></rect><rect x="449.43" y="246.04" width="0.56" height="5.71" transform="matrix(0.85, -0.53, 0.53, 0.85, -63.67, 273.95)" style="fill:#455a64"></rect><path d="M451.79,245.74v14.64a.22.22,0,0,1-.13.19.7.7,0,0,1-.66,0,.23.23,0,0,1-.14-.19V245.74Z" style="fill:#455a64"></path><path d="M462.86,241.19a6.8,6.8,0,1,1-6.8-6.8A6.8,6.8,0,0,1,462.86,241.19Z" style="fill:#BA68C8"></path><path d="M458.19,239.45c.88-2.76,1.82-3.84,1.22-4.18a6.8,6.8,0,1,0,1.9,10.24C459.29,246.1,457.06,243,458.19,239.45Z" style="opacity:0.2"></path><path d="M450.13,243.11a4.78,4.78,0,1,1-4.78-4.78A4.78,4.78,0,0,1,450.13,243.11Z" style="fill:#BA68C8"></path><path d="M445.35,238.33a4.75,4.75,0,0,0-2.79.91c-.13,2.91,2.35,5.76,1.66,6.72s-2.4.37-3-.45a4.78,4.78,0,1,0,4.13-7.18Z" style="opacity:0.2"></path><circle cx="451.33" cy="237.96" r="8.77" style="fill:#BA68C8"></circle><path d="M459.86,240A8.77,8.77,0,1,1,447,230.33a8.74,8.74,0,0,0-2.06,1.61,8.76,8.76,0,0,0,14.9,8Z" style="opacity:0.1"></path><rect x="312.77" y="249.36" width="6.81" height="0.56" transform="translate(-49.55 418.57) rotate(-63.09)" style="fill:#455a64"></rect><rect x="312.74" y="245.71" width="0.56" height="5.71" transform="matrix(0.85, -0.53, 0.53, 0.85, -83.96, 201.95)" style="fill:#455a64"></rect><path d="M315.1,245.42v14.64a.24.24,0,0,1-.14.19.76.76,0,0,1-.66,0,.25.25,0,0,1-.13-.19V245.42Z" style="fill:#455a64"></path><path d="M326.17,240.86a6.8,6.8,0,1,1-6.8-6.8A6.81,6.81,0,0,1,326.17,240.86Z" style="fill:#BA68C8"></path><path d="M321.5,239.12c.88-2.76,1.81-3.84,1.22-4.18a6.8,6.8,0,1,0,1.89,10.25C322.6,245.77,320.36,242.7,321.5,239.12Z" style="opacity:0.2"></path><path d="M313.44,242.78a4.78,4.78,0,1,1-4.78-4.77A4.78,4.78,0,0,1,313.44,242.78Z" style="fill:#BA68C8"></path><path d="M308.66,238a4.72,4.72,0,0,0-2.79.9c-.13,2.92,2.35,5.76,1.65,6.72s-2.4.37-3-.44a4.78,4.78,0,1,0,4.13-7.18Z" style="opacity:0.2"></path><circle cx="314.63" cy="237.63" r="8.77" style="fill:#BA68C8"></circle><path d="M323.17,239.64A8.77,8.77,0,1,1,310.32,230a8.89,8.89,0,0,0-2.05,1.61,8.77,8.77,0,0,0,14.9,8Z" style="opacity:0.1"></path><polygon points="398.57 195.58 405.11 199.36 405.11 206.92 398.57 203.14 398.57 195.58" style="fill:#e0e0e0"></polygon><polygon points="405.11 199.36 411.66 195.58 411.66 210.69 405.11 206.92 405.11 199.36" style="fill:#f0f0f0"></polygon><polygon points="405.11 189.15 397.89 193.31 397.89 195.2 405.11 199.36 412.34 195.2 412.34 193.31 405.11 189.15" style="fill:#455a64"></polygon><polygon points="397.89 195.2 405.11 199.36 405.11 197.47 397.89 193.31 397.89 195.2" style="fill:#37474f"></polygon><polygon points="412.34 195.2 405.11 199.36 405.11 197.47 412.34 193.31 412.34 195.2" style="fill:#263238"></polygon><polygon points="400.31 193.31 405.11 190.55 409.92 193.31 405.11 196.08 400.31 193.31" style="fill:#BA68C8"></polygon><polygon points="405.11 190.55 405.11 196.08 400.31 193.31 405.11 190.55" style="fill:#37474f"></polygon><polygon points="405.11 190.55 409.92 193.31 405.11 196.08 405.11 190.55" style="fill:#263238"></polygon><polygon points="382.87 271.45 382.86 237.68 402.33 248.93 402.33 282.7 382.87 271.45" style="fill:#f0f0f0"></polygon><polygon points="382.86 237.68 402.33 248.93 402.33 262.38 382.86 251.15 382.86 237.68" style="fill:#e0e0e0"></polygon><polygon points="441.36 260.19 441.36 226.42 421.82 215.16 402.33 248.93 402.33 282.7 441.36 260.19" style="fill:#fafafa"></polygon><polygon points="399.11 254.56 421.82 215.16 421.82 211.41 395.86 256.44 399.11 254.56" style="fill:#37474f"></polygon><polygon points="382.86 188.9 421.82 211.41 395.86 256.44 382.87 248.93 382.86 188.9" style="fill:#455a64"></polygon><polygon points="421.82 215.16 444.61 228.29 447.86 226.42 421.82 211.41 421.82 215.16" style="fill:#263238"></polygon><polygon points="429.97 244.95 437.61 240.57 437.61 251.83 429.97 256.21 429.97 244.95" style="fill:#455a64"></polygon><polygon points="436.96 251.45 436.96 240.95 429.97 244.95 429.97 255.45 436.96 251.45" style="fill:#e0e0e0"></polygon><polygon points="437.61 251.83 436.96 251.45 429.97 255.45 429.97 256.21 437.61 251.83" style="fill:#37474f"></polygon><polygon points="429.97 250.58 437.61 246.2 437.61 245.44 429.97 249.82 429.97 250.58" style="fill:#455a64"></polygon><polygon points="405.99 258.78 413.63 254.4 413.63 265.65 405.99 270.04 405.99 258.78" style="fill:#455a64"></polygon><polygon points="412.98 265.28 412.98 254.77 405.99 258.78 405.99 269.28 412.98 265.28" style="fill:#e0e0e0"></polygon><polygon points="413.63 265.65 412.98 265.28 405.99 269.28 405.99 270.04 413.63 265.65" style="fill:#37474f"></polygon><polygon points="405.99 264.41 413.63 260.03 413.63 259.27 405.99 263.65 405.99 264.41" style="fill:#455a64"></polygon><polygon points="416.95 232.05 426.7 226.42 426.7 234.86 416.95 240.49 416.95 232.05" style="fill:#455a64"></polygon><polygon points="426.05 234.48 426.05 226.79 416.95 232.05 416.95 239.74 426.05 234.48" style="fill:#e0e0e0"></polygon><polygon points="426.7 234.86 426.05 234.48 416.95 239.74 416.95 240.49 426.7 234.86" style="fill:#37474f"></polygon><polygon points="444.61 228.29 441.36 228.29 441.36 226.42 444.61 228.29"></polygon><polygon points="416.38 274.58 416.38 252.07 427.27 245.79 427.27 268.3 416.38 274.58" style="fill:#37474f"></polygon><polygon points="426.89 268.01 426.89 246.01 416.38 252.07 416.38 274.07 426.89 268.01" style="fill:#455a64"></polygon><polygon points="427.27 245.79 426.89 246.01 426.89 268.01 427.27 268.3 427.27 245.79" style="fill:#263238"></polygon><polygon points="382.86 271.45 382.86 237.68 363.4 248.93 363.4 282.7 382.86 271.45" style="fill:#fafafa"></polygon><polygon points="382.86 237.68 363.4 248.93 363.4 262.38 382.87 251.15 382.86 237.68" style="fill:#f5f5f5"></polygon><polygon points="324.37 260.19 324.37 226.42 343.9 215.16 363.4 248.93 363.4 282.7 324.37 260.19" style="fill:#ebebeb"></polygon><polygon points="366.62 254.56 343.9 215.16 343.9 211.41 369.87 256.44 366.62 254.56" style="fill:#455a64"></polygon><polygon points="382.86 188.9 343.9 211.41 369.87 256.44 382.86 248.93 382.86 188.9" style="fill:#37474f"></polygon><polygon points="343.9 215.16 321.12 228.29 317.87 226.42 343.9 211.41 343.9 215.16" style="fill:#263238"></polygon><polygon points="338.51 245.81 330.87 241.43 330.87 252.69 338.51 257.06 338.51 245.81" style="fill:#455a64"></polygon><polygon points="331.52 252.31 331.52 241.8 338.51 245.81 338.51 256.31 331.52 252.31" style="fill:#fafafa"></polygon><polygon points="331.52 241.8 338.51 245.84 338.51 247.23 331.52 243.22 331.52 241.8" style="fill:#f5f5f5"></polygon><polygon points="349.88 252.4 356.87 256.44 356.87 257.83 349.88 253.82 349.88 252.4" style="fill:#f5f5f5"></polygon><polygon points="330.87 252.69 331.52 252.31 338.51 256.31 338.51 257.06 330.87 252.69" style="fill:#37474f"></polygon><polygon points="338.51 251.44 330.87 247.06 330.87 246.3 338.51 250.68 338.51 251.44" style="fill:#455a64"></polygon><polygon points="348.78 232.05 339.03 226.42 339.03 234.86 348.78 240.49 348.78 232.05" style="fill:#455a64"></polygon><polygon points="339.68 234.48 339.68 226.79 348.78 232.05 348.78 239.74 339.68 234.48" style="fill:#fafafa"></polygon><polygon points="339.68 226.79 348.78 232.05 348.78 233.44 339.68 228.22 339.68 226.79" style="fill:#f5f5f5"></polygon><polygon points="339.03 234.86 339.68 234.48 348.78 239.74 348.78 240.49 339.03 234.86" style="fill:#37474f"></polygon><polygon points="321.12 228.29 324.37 228.29 324.37 226.42 321.12 228.29"></polygon><polygon points="356.87 256.44 349.23 252.03 349.23 263.28 356.87 267.69 356.87 256.44" style="fill:#455a64"></polygon><polygon points="349.88 262.9 349.88 252.4 356.87 256.44 356.87 266.94 349.88 262.9" style="fill:#fafafa"></polygon><polygon points="349.23 263.28 349.88 262.9 356.87 266.94 356.87 267.69 349.23 263.28" style="fill:#37474f"></polygon><polygon points="356.87 262.03 349.23 257.65 349.23 256.89 356.87 261.27 356.87 262.03" style="fill:#455a64"></polygon><polygon points="349.88 252.4 356.87 256.44 356.87 257.83 349.88 253.82 349.88 252.4" style="fill:#f5f5f5"></polygon><polygon points="395.86 256.44 386.1 250.8 386.1 261.18 395.86 266.81 395.86 256.44" style="fill:#263238"></polygon><polygon points="386.7 260.83 386.7 251.15 395.86 256.44 395.86 266.12 386.7 260.83" style="fill:#fafafa"></polygon><polygon points="386.7 251.15 386.7 253.4 395.86 258.7 395.86 256.44 386.7 251.15" style="fill:#f0f0f0"></polygon><polygon points="386.1 261.18 386.7 260.83 395.86 266.12 395.86 266.81 386.1 261.18" style="fill:#37474f"></polygon><polygon points="386.1 255.99 386.7 255.64 395.86 260.93 395.86 261.63 386.1 255.99" style="fill:#37474f"></polygon><polygon points="390.78 263.88 391.38 264.22 391.38 253.85 390.78 253.5 390.78 263.88" style="fill:#37474f"></polygon><g id="freepik--Plants--inject-11"><path d="M376.19,279l1.73-1a29.83,29.83,0,0,0,.21-8.51c-.87-5.52-4.64-7.43-6-6.88s-1.68,2.19.79,5.38A18.46,18.46,0,0,1,376.19,279Z" style="fill:#BA68C8"></path><g style="opacity:0.2"><path d="M376.19,279l1.73-1a29.83,29.83,0,0,0,.21-8.51c-.87-5.52-4.64-7.43-6-6.88s-1.68,2.19.79,5.38A18.46,18.46,0,0,1,376.19,279Z"></path></g><path d="M376.82,276.84h0a.12.12,0,0,1-.11-.14c.72-5.17-1.36-10.84-3.7-13.13a.12.12,0,0,1,.17-.17c2.38,2.32,4.5,8.08,3.78,13.34A.12.12,0,0,1,376.82,276.84Z" style="fill:#fff"></path><path d="M371.39,281.81c-.28.16-.84-.18-1.06-.33a2.6,2.6,0,0,1-.86-1,2.45,2.45,0,0,1-.22-1.46,6.34,6.34,0,0,1,.18-.78c.08-.26.15-.51.22-.76a1.85,1.85,0,0,0,.11-.77,1.93,1.93,0,0,0-.94-1.19,1.91,1.91,0,0,1-.94-1.43,2.19,2.19,0,0,1,.55-1.31c.3-.38.65-.71.92-1.11a1.31,1.31,0,0,0,.1-1.57,8.47,8.47,0,0,1-.66-1.22,1.22,1.22,0,0,1,.21-1.29,1.43,1.43,0,0,1,1.07-.27,2.4,2.4,0,0,1,1,.35c1,.55,1.56,1.73,2.61,2.15a9.4,9.4,0,0,0,1.27.31,1.54,1.54,0,0,1,1.05.72c.39.77-.33,1.72-.06,2.54s.95,1,1.34,1.66a1.46,1.46,0,0,1,.19.94,4.63,4.63,0,0,1-.4,1.61,12.81,12.81,0,0,1-.88,1.44Z" style="fill:#BA68C8"></path><g style="opacity:0.1"><path d="M371.39,281.81c-.28.16-.84-.18-1.06-.33a2.6,2.6,0,0,1-.86-1,2.45,2.45,0,0,1-.22-1.46,6.34,6.34,0,0,1,.18-.78c.08-.26.15-.51.22-.76a1.85,1.85,0,0,0,.11-.77,1.93,1.93,0,0,0-.94-1.19,1.91,1.91,0,0,1-.94-1.43,2.19,2.19,0,0,1,.55-1.31c.3-.38.65-.71.92-1.11a1.31,1.31,0,0,0,.1-1.57,8.47,8.47,0,0,1-.66-1.22,1.22,1.22,0,0,1,.21-1.29,1.43,1.43,0,0,1,1.07-.27,2.4,2.4,0,0,1,1,.35c1,.55,1.56,1.73,2.61,2.15a9.4,9.4,0,0,0,1.27.31,1.54,1.54,0,0,1,1.05.72c.39.77-.33,1.72-.06,2.54s.95,1,1.34,1.66a1.46,1.46,0,0,1,.19.94,4.63,4.63,0,0,1-.4,1.61,12.81,12.81,0,0,1-.88,1.44Z"></path></g><path d="M374.2,280.32h0a.14.14,0,0,1-.12-.13c.21-4.9-2.1-10.31-3.78-11.88a.12.12,0,1,1,.17-.18c1.71,1.6,4.07,7.1,3.86,12.07A.13.13,0,0,1,374.2,280.32Z" style="fill:#fff"></path><path d="M373.46,274.53h0a17,17,0,0,0-3.56-.57.12.12,0,0,1-.12-.13.13.13,0,0,1,.13-.12,16.77,16.77,0,0,1,3.62.59.12.12,0,0,1,.08.15A.13.13,0,0,1,373.46,274.53Z" style="fill:#fff"></path></g><polygon points="416.38 274.58 427.27 268.3 437.04 273.94 426.15 280.21 416.38 274.58" style="fill:#f0f0f0"></polygon></g><polygon points="240.28 290.9 145.22 345.78 145.22 350 243.93 406.99 338.98 352.11 338.98 347.89 240.28 290.9" style="fill:#BA68C8"></polygon><polyline points="284.15 366.89 295.05 373.26 313.36 362.69 302.43 356.34 284.15 366.89" style="fill:#f0f0f0"></polyline><polyline points="145.22 345.78 243.93 402.77 243.93 406.99 145.22 350 145.22 345.78" style="opacity:0.15"></polyline><polygon points="243.93 402.77 338.98 347.89 338.98 352.11 243.93 406.99 243.93 402.77" style="opacity:0.1"></polygon><rect x="321.83" y="333.15" width="9.36" height="0.77" transform="translate(-118.67 473.75) rotate(-63.09)" style="fill:#263238"></rect><rect x="321.78" y="328.13" width="0.76" height="7.85" transform="translate(-126.53 219.27) rotate(-31.76)" style="fill:#263238"></rect><path d="M325,327.72v20.11a.32.32,0,0,1-.19.26,1,1,0,0,1-.91,0,.31.31,0,0,1-.18-.26V327.72Z" style="fill:#263238"></path><circle cx="330.89" cy="321.46" r="9.34" style="fill:#455a64"></circle><path d="M333.82,319.08c1.2-3.8,2.49-5.28,1.67-5.74a9.34,9.34,0,1,0,2.6,14.07C335.33,328.21,332.26,324,333.82,319.08Z" style="fill:#37474f"></path><circle cx="316.18" cy="324.11" r="6.56" style="fill:#455a64"></circle><path d="M316.18,317.54a6.54,6.54,0,0,0-3.84,1.24c-.17,4,3.23,7.92,2.28,9.24s-3.3.5-4.11-.61a6.56,6.56,0,1,0,5.67-9.87Z" style="fill:#37474f"></path><circle cx="324.39" cy="317.03" r="12.04" transform="translate(-58.69 559.9) rotate(-76.72)" style="fill:#455a64"></circle><path d="M336.11,319.78a12,12,0,1,1-17.65-13.23,12.29,12.29,0,0,0-2.82,2.21,12.39,12.39,0,0,0-.32,2.75,12,12,0,0,0,20.79,8.27Z" style="fill:#37474f"></path><rect x="157.43" y="330.8" width="9.36" height="0.77" transform="translate(-206.58 325.83) rotate(-63.09)" style="fill:#263238"></rect><rect x="157.39" y="325.78" width="0.76" height="7.85" transform="translate(-149.91 132.4) rotate(-31.76)" style="fill:#263238"></rect><path d="M160.63,325.37v20.11a.31.31,0,0,1-.18.26,1,1,0,0,1-.91,0,.32.32,0,0,1-.19-.26V325.37Z" style="fill:#263238"></path><circle cx="166.5" cy="319.12" r="9.34" style="fill:#455a64"></circle><path d="M169.43,316.73c1.2-3.8,2.48-5.28,1.67-5.74a9.34,9.34,0,1,0,2.6,14.07C170.94,325.87,167.86,321.65,169.43,316.73Z" style="fill:#37474f"></path><circle cx="151.79" cy="321.76" r="6.56" style="fill:#455a64"></circle><path d="M151.79,315.2a6.58,6.58,0,0,0-3.84,1.23c-.18,4,3.23,7.92,2.28,9.24s-3.3.5-4.12-.61a6.56,6.56,0,1,0,5.68-9.86Z" style="fill:#37474f"></path><circle cx="159.99" cy="314.68" r="12.04" transform="translate(-175.65 205.3) rotate(-45)" style="fill:#455a64"></circle><path d="M171.71,317.43a12,12,0,1,1-17.64-13.23,11.88,11.88,0,0,0-2.82,2.21,12.39,12.39,0,0,0-.32,2.75,12,12,0,0,0,20.78,8.27Z" style="fill:#37474f"></path><polygon points="189.09 333.12 265.87 377.44 265.87 309.9 189.09 265.58 189.09 333.12" style="fill:#f0f0f0"></polygon><polygon points="243.93 352.11 243.93 390.11 167.16 345.78 167.16 307.79 243.93 352.11" style="fill:#f0f0f0"></polygon><polygon points="167.16 320.45 243.93 364.78 243.93 352.11 167.16 307.79 167.16 320.45" style="fill:#e0e0e0"></polygon><polygon points="189.09 278.24 265.87 322.56 265.87 309.9 189.09 265.57 189.09 278.24" style="fill:#e0e0e0"></polygon><polygon points="265.87 309.9 317.05 280.35 317.05 347.89 265.87 377.44 265.87 309.9" style="fill:#fafafa"></polygon><polygon points="243.93 352.11 265.87 331.01 265.87 377.44 243.93 390.11 243.93 352.11" style="fill:#fafafa"></polygon><polygon points="291.46 265.57 265.87 309.9 317.05 280.35 291.46 265.57" style="fill:#fafafa"></polygon><polygon points="262.21 316.23 291.46 265.57 291.46 262.41 262.21 313.07 262.21 316.23" style="fill:#BA68C8"></polygon><polygon points="262.21 316.23 291.46 265.57 291.46 262.41 262.21 313.07 262.21 316.23" style="opacity:0.1"></polygon><rect x="209.2" y="221.25" width="58.49" height="88.65" transform="translate(-110.77 339.29) rotate(-60)" style="fill:#BA68C8"></rect><polygon points="185.44 268.74 262.21 313.07 262.21 316.23 185.44 271.91 185.44 268.74" style="fill:#BA68C8"></polygon><polygon points="185.44 268.74 262.21 313.07 262.21 316.23 185.44 271.91 185.44 268.74" style="opacity:0.15"></polygon><polygon points="291.46 262.41 323.45 280.88 320.7 282.46 291.46 265.57 291.46 262.41" style="fill:#BA68C8"></polygon><polygon points="291.46 262.41 323.45 280.88 320.7 282.46 291.46 265.57 291.46 262.41" style="opacity:0.15"></polygon><polygon points="320.7 282.46 317.05 282.46 317.05 280.35 320.7 282.46" style="fill:#BA68C8"></polygon><polygon points="320.7 282.46 317.05 282.46 317.05 280.35 320.7 282.46" style="opacity:0.30000000000000004"></polygon><polygon points="200.87 268.14 200.87 252.94 209.62 247.89 218.34 262.99 218.34 278.24 200.87 268.14" style="fill:#f0f0f0"></polygon><polygon points="209.62 247.89 198.82 254.12 197.44 253.32 209.62 246.29 209.62 247.89" style="opacity:0.2"></polygon><polygon points="218.34 278.24 227.07 263.1 231.53 255.36 218.34 262.99 218.34 278.24" style="fill:#fafafa"></polygon><polygon points="198.82 254.12 200.87 254.12 200.87 252.94 198.82 254.12" style="opacity:0.4"></polygon><polygon points="220.42 266.59 209.62 247.89 209.62 246.29 221.77 267.37 220.42 266.59" style="fill:#BA68C8"></polygon><polygon points="220.42 266.59 209.62 247.89 209.62 246.29 221.77 267.37 220.42 266.59" style="opacity:0.1"></polygon><polygon points="221.77 267.37 209.62 246.29 222.19 239.03 234.34 260.11 221.77 267.37" style="fill:#BA68C8"></polygon><polygon points="221.77 267.37 209.62 246.29 222.19 239.03 234.34 260.11 221.77 267.37" style="fill:#fff;opacity:0.30000000000000004"></polygon><polygon points="213.98 260.55 205.24 255.5 205.24 265.58 213.98 270.63 213.98 260.55" style="fill:#455a64"></polygon><polygon points="206.13 265.06 206.13 256.01 213.98 260.55 213.98 269.59 206.13 265.06" style="fill:#e0e0e0"></polygon><polygon points="205.24 265.58 206.13 265.06 213.98 269.59 213.98 270.63 205.24 265.58" style="fill:#37474f"></polygon><polygon points="237.42 289.25 237.42 274.05 246.18 269 254.9 284.1 254.9 299.35 237.42 289.25" style="fill:#f0f0f0"></polygon><polygon points="246.18 269 235.38 275.23 233.99 274.43 246.18 267.4 246.18 269" style="opacity:0.2"></polygon><polygon points="254.9 299.35 263.62 284.21 268.08 276.47 254.9 284.1 254.9 299.35" style="fill:#fafafa"></polygon><polygon points="235.38 275.23 237.42 275.23 237.42 274.05 235.38 275.23" style="opacity:0.4"></polygon><polygon points="256.98 287.7 246.18 269 246.18 267.4 258.32 288.48 256.98 287.7" style="fill:#BA68C8"></polygon><polygon points="256.98 287.7 246.18 269 246.18 267.4 258.32 288.48 256.98 287.7" style="opacity:0.1"></polygon><polygon points="258.32 288.48 246.18 267.4 258.74 260.13 270.89 281.21 258.32 288.48" style="fill:#BA68C8"></polygon><polygon points="258.32 288.48 246.18 267.4 258.74 260.13 270.89 281.21 258.32 288.48" style="fill:#fff;opacity:0.30000000000000004"></polygon><polygon points="250.53 281.65 241.79 276.61 241.79 286.69 250.53 291.74 250.53 281.65" style="fill:#455a64"></polygon><polygon points="242.69 286.17 242.69 277.12 250.53 281.65 250.53 290.7 242.69 286.17" style="fill:#e0e0e0"></polygon><polygon points="241.79 286.69 242.69 286.17 250.53 290.7 250.53 291.74 241.79 286.69" style="fill:#37474f"></polygon><polygon points="189.09 283.83 265.87 328.15 265.87 331.01 240.28 358.45 163.5 314.12 163.5 311.27 189.09 283.83" style="fill:#BA68C8"></polygon><polygon points="189.09 283.83 265.87 328.15 240.28 355.59 163.5 311.27 189.09 283.83" style="fill:#BA68C8"></polygon><polygon points="240.28 355.59 240.28 358.45 265.87 331.01 265.87 328.15 240.28 355.59" style="opacity:0.1"></polygon><polygon points="240.28 358.45 163.5 314.12 163.5 311.27 240.28 355.59 240.28 358.45" style="opacity:0.15"></polygon><polygon points="196.41 333.11 178.13 322.56 178.13 341.98 196.41 352.53 196.41 333.11" style="fill:#263238"></polygon><polygon points="179.25 341.33 179.25 323.21 196.41 333.12 196.41 351.23 179.25 341.33" style="fill:#fafafa"></polygon><polygon points="179.25 323.21 179.25 327.44 196.41 337.34 196.41 333.11 179.25 323.21" style="fill:#f0f0f0"></polygon><polygon points="178.13 341.98 179.25 341.33 196.41 351.23 196.41 352.53 178.13 341.98" style="fill:#37474f"></polygon><polygon points="178.13 332.27 179.25 331.62 196.41 341.52 196.41 342.82 178.13 332.27" style="fill:#37474f"></polygon><polygon points="186.89 347.04 188.01 347.69 188.01 328.27 186.89 327.62 186.89 347.04" style="fill:#37474f"></polygon><polygon points="229.31 352.11 211.03 341.56 211.03 360.98 229.31 371.53 229.31 352.11" style="fill:#263238"></polygon><polygon points="212.15 360.33 212.15 342.21 229.31 352.11 229.31 370.23 212.15 360.33" style="fill:#fafafa"></polygon><polygon points="212.15 342.21 212.15 346.43 229.31 356.34 229.31 352.11 212.15 342.21" style="fill:#f0f0f0"></polygon><polygon points="211.03 360.98 212.15 360.33 229.31 370.23 229.31 371.53 211.03 360.98" style="fill:#37474f"></polygon><polygon points="211.03 351.27 212.15 350.62 229.31 360.52 229.31 361.82 211.03 351.27" style="fill:#37474f"></polygon><polygon points="219.79 366.04 220.91 366.69 220.91 347.27 219.79 346.62 219.79 366.04" style="fill:#37474f"></polygon><polygon points="254.9 354.23 273.18 343.67 273.18 363.09 254.9 373.64 254.9 354.23" style="fill:#263238"></polygon><polygon points="272.06 362.44 272.06 344.32 254.9 354.23 254.9 372.34 272.06 362.44" style="fill:#e6e6e6"></polygon><polygon points="272.06 344.32 272.06 346.18 254.9 356.08 254.9 354.23 272.06 344.32" style="fill:#e0e0e0"></polygon><polygon points="273.18 363.09 272.06 362.44 254.9 372.34 254.9 373.64 273.18 363.09" style="fill:#37474f"></polygon><polygon points="273.18 353.38 272.06 352.73 254.9 362.63 254.9 363.93 273.18 353.38" style="fill:#37474f"></polygon><polygon points="264.42 368.15 263.3 368.8 263.3 349.38 264.42 348.73 264.42 368.15" style="fill:#37474f"></polygon><polygon points="283.81 291.38 302.09 280.83 302.09 300.25 283.81 310.8 283.81 291.38" style="fill:#263238"></polygon><polygon points="300.97 299.6 300.97 281.48 283.81 291.38 283.81 309.5 300.97 299.6" style="fill:#e6e6e6"></polygon><polygon points="300.97 281.48 300.97 283.34 283.81 293.24 283.81 291.38 300.97 281.48" style="fill:#e0e0e0"></polygon><polygon points="302.09 300.25 300.97 299.6 283.81 309.5 283.81 310.8 302.09 300.25" style="fill:#37474f"></polygon><polygon points="302.09 290.54 300.97 289.89 283.81 299.8 283.81 301.1 302.09 290.54" style="fill:#37474f"></polygon><polygon points="293.33 305.31 292.21 305.96 292.21 286.54 293.33 285.89 293.33 305.31" style="fill:#37474f"></polygon><polygon points="284.15 366.89 284.15 333.12 302.43 322.56 302.43 356.34 284.15 366.89" style="fill:#37474f"></polygon><polygon points="301.76 355.83 301.76 322.95 284.15 333.12 284.15 366 301.76 355.83" style="fill:#455a64"></polygon><polygon points="302.43 322.56 301.76 322.95 301.76 355.83 302.43 356.34 302.43 322.56" style="fill:#263238"></polygon></g><g id="freepik--magnifying-glass--inject-11"><g id="freepik--magnifying-glas--inject-11"><path d="M388.44,86.45A16.86,16.86,0,0,0,381.26,73c-2-1.27-3.92-1.46-5.32-.74h0c-8.45,4.24-67.83,42.31-71.62,44.19l-.05,0a2.7,2.7,0,0,0-1.2,2.45,8.45,8.45,0,0,0,3.61,6.78,2.7,2.7,0,0,0,2.71.36l.06,0c6-3.31,64.61-28.29,76.59-34.71h0C387.45,90.55,388.36,88.87,388.44,86.45Z" style="fill:#BA68C8"></path><path d="M386.11,78.24A15.12,15.12,0,0,0,381.26,73c-2-1.27-3.9-1.46-5.3-.75l-.18.1c-7.71,3.94-51.9,32.13-66.77,41.3l-.1.06-.6.37-.18.11-.34.21-.4.24,0,0c-1.57,1-2.63,1.58-3,1.79l-.05,0a1.82,1.82,0,0,0-.35.27,3,3,0,0,0-.85,2.18,6.12,6.12,0,0,0,0,.85c0,.11,0,.22.05.33s.06.34.1.52.07.28.11.41.1.33.16.49.09.24.13.36l0,.06Z" style="opacity:0.1"></path><path d="M306.67,125.69a8.47,8.47,0,0,1-3.61-6.75c.09-2.44,1.83-3.38,3.9-2.09a8.47,8.47,0,0,1,3.61,6.76C310.49,126.05,308.74,127,306.67,125.69Z" style="fill:#BA68C8"></path><path d="M288.92,127.33a6.53,6.53,0,0,0,2.77,5.19,2.07,2.07,0,0,0,2.07.27h0l14.36-7.65h0a2.07,2.07,0,0,0,.92-1.87,6.51,6.51,0,0,0-2.77-5.19,2.06,2.06,0,0,0-2.07-.28h0l-14.36,7.65h0A2.07,2.07,0,0,0,288.92,127.33Z" style="fill:#37474f"></path><path d="M289.86,125.45a2.07,2.07,0,0,0-.94,1.88,5.58,5.58,0,0,0,.44,2.21l18.52-9.88a5.68,5.68,0,0,0-1.59-1.58,2.06,2.06,0,0,0-2.07-.28l-14.36,7.65Z" style="fill:#263238"></path><path d="M307.35,140.07c0-9.2-6.08-18.4-18.25-25.42-24.32-14.05-63.76-14.05-88.09,0-12.16,7-18.24,16.22-18.24,25.42h0v17c0,9.2,6.08,18.4,18.25,25.43,24.32,14,63.76,14,88.08,0,12.17-7,18.25-16.23,18.25-25.43v-17ZM204,119.86c10.86-6.27,25.43-9.72,41-9.72s30.17,3.45,41,9.72c9.82,5.67,15.23,12.85,15.23,20.22s-5.41,14.54-15.23,20.21c-10.86,6.27-25.43,9.72-41,9.72s-30.17-3.45-41-9.72c-9.83-5.67-15.23-12.85-15.23-20.21S194.2,125.53,204,119.86Z" style="fill:#BA68C8"></path><path d="M201,165.5c24.33,14.05,63.76,14.05,88.09,0s24.33-36.81,0-50.85-63.76-14.05-88.09,0S176.69,151.46,201,165.5Zm-12.22-25.42c0-7.37,5.41-14.55,15.23-20.22,10.87-6.27,25.44-9.72,41-9.72s30.17,3.45,41,9.72c9.82,5.67,15.23,12.85,15.23,20.22s-5.41,14.54-15.23,20.21c-10.87,6.27-25.44,9.72-41,9.72s-30.17-3.45-41-9.72C194.2,154.62,188.79,147.44,188.79,140.08Z" style="fill:#fff;opacity:0.30000000000000004"></path><path d="M188.79,140.07a16.74,16.74,0,0,0,2.43,8.49c2.47-4.28,6.82-8.29,12.81-11.74,10.85-6.28,25.43-9.73,41-9.73s30.17,3.45,41,9.73c6,3.45,10.34,7.46,12.82,11.74a16.83,16.83,0,0,0,2.42-8.49c0-7.36-5.41-14.54-15.24-20.21-10.85-6.27-25.43-9.72-41-9.72s-30.18,3.45-41,9.72C194.2,125.53,188.79,132.71,188.79,140.07Z" style="fill:#BA68C8"></path><path d="M188.79,140.07a16.74,16.74,0,0,0,2.43,8.49c2.47-4.28,6.82-8.29,12.81-11.74,10.85-6.28,25.43-9.73,41-9.73s30.17,3.45,41,9.73c6,3.45,10.34,7.46,12.82,11.74a16.83,16.83,0,0,0,2.42-8.49c0-7.36-5.41-14.54-15.24-20.21-10.85-6.27-25.43-9.72-41-9.72s-30.18,3.45-41,9.72C194.2,125.53,188.79,132.71,188.79,140.07Z" style="opacity:0.1"></path><path d="M204,127.54c10.87-6.27,25.44-9.73,41-9.73s30.17,3.46,41,9.73c8.1,4.68,13.19,10.38,14.73,16.37-1.54,6-6.63,11.7-14.73,16.38-10.87,6.27-25.44,9.72-41,9.72s-30.17-3.45-41-9.72c-8.1-4.68-13.19-10.39-14.73-16.38C190.83,137.92,195.92,132.22,204,127.54Z" style="fill:#fff;opacity:0.4"></path><path d="M230.38,175V192c-10.76-1.5-21-4.67-29.36-9.52-12.17-7-18.25-16.23-18.25-25.44v-17a21.55,21.55,0,0,1,.74-5.55h0c-3,10.95,2.88,22.54,17.49,31C209.42,170.36,219.62,173.53,230.38,175Z" style="opacity:0.1"></path></g></g></svg>